<?xml version="1.0" encoding="UTF-8"?>
<svg id="Capa_2" data-name="Capa 2" xmlns="http://www.w3.org/2000/svg" viewBox="0 0 18.15 21.2">
  <defs>
    <style>
      .cls-1 {
        fill: #082a46;
      }
    </style>
  </defs>
  <g id="Buttons">
    <g id="moon-sharp-light">
      <path id="moon-sharp-light-2" class="cls-1" d="M13.6.44c-.96-.28-1.95-.43-2.94-.44h-.07C4.73,0,0,4.76,0,10.61c0,5.85,4.76,10.59,10.61,10.59,1.82,0,3.6-.47,5.18-1.36.02,0,.04-.02.06-.03.85-.48,1.62-1.08,2.3-1.78-.75.2-1.52.3-2.3.29-.15,0-.3,0-.45,0-5.01-.26-8.87-4.54-8.6-9.56.21-3.96,2.96-7.33,6.81-8.33h0ZM8.31,1.8c-4.11,4.18-4.04,10.9.14,15.01,1.23,1.21,2.74,2.1,4.39,2.59-4.88,1.19-9.79-1.79-10.99-6.67C.69,7.94,3.55,3.09,8.31,1.8Z"/>
    </g>
  </g>
</svg>