<?xml version="1.0" encoding="UTF-8"?>
<svg id="Capa_2" data-name="Capa 2" xmlns="http://www.w3.org/2000/svg" viewBox="0 0 25 25">
  <defs>
    <style>
      .cls-1 {
        fill: #082a46;
      }
    </style>
  </defs>
  <g id="Buttons">
    <path class="cls-1" d="M12.5,0C5.6,0,0,5.6,0,12.5s5.6,12.5,12.5,12.5,12.5-5.6,12.5-12.5S19.4,0,12.5,0ZM20.63,5.23c.09.1.64.76.66.81.02.07-.04.08-.08.11-1.31.49-2.64.9-4.01,1.18-.35-1.37-.98-2.65-1.67-3.87l-1.11-1.69c2.37.42,4.62,1.67,6.22,3.46ZM16.01,15.86c-.66-.03-1.31-.15-1.97-.19-.98-.06-2.09-.06-3.07,0-.26.02-1.9.23-1.98.17-.48-2.19-.48-4.5,0-6.69.08-.06.97.11,1.15.13,1.96.19,3.93.11,5.88-.13.47,2.19.48,4.52,0,6.71ZM12.48,2.06c.11-.02.78.9.89,1.05.97,1.37,1.71,2.87,2.25,4.45l-2.36.2c-1.3.02-2.59-.06-3.88-.2.48-1.4,1.11-2.76,1.93-4,.13-.2,1.06-1.49,1.17-1.51ZM10.6,1.77l-.95,1.42c-.77,1.3-1.46,2.67-1.83,4.14-1.39-.31-2.79-.67-4.1-1.25,1.6-2.27,4.14-3.82,6.88-4.32ZM2.8,17.52c-.53-1.17-.96-2.36-1.12-3.64-.28-2.24.15-4.39,1.12-6.41,1.48.59,3,1.07,4.56,1.41.05.06-.19,1.29-.22,1.5-.22,1.92-.11,3.88.24,5.77-1.58.25-3.09.81-4.58,1.37ZM4.38,19.77c-.09-.1-.64-.76-.66-.81-.02-.07.04-.08.08-.11,1.31-.49,2.65-.9,4.01-1.18.37,1.47,1.07,2.84,1.83,4.14l.95,1.42c-2.37-.42-4.62-1.67-6.22-3.46ZM12.48,22.94c-.09-.02-.75-.91-.85-1.05-.97-1.37-1.71-2.87-2.25-4.45l2.36-.2c1.3-.02,2.59.06,3.88.2-.54,1.59-1.28,3.09-2.25,4.45-.11.15-.77,1.07-.89,1.05ZM14.41,23.23l1.11-1.69c.69-1.22,1.32-2.51,1.67-3.87,1.4.3,2.79.67,4.1,1.25-1.61,2.27-4.14,3.83-6.88,4.32ZM17.62,16.16c.44-2.37.5-4.83,0-7.2,0-.07.03-.09.08-.11.4-.1.81-.16,1.16-.26,1.14-.3,2.25-.69,3.34-1.12.16.44.38.85.54,1.29,1.05,2.88.84,6.04-.56,8.76-1.47-.59-2.99-1.11-4.56-1.37Z"/>
  </g>
</svg>