<?xml version="1.0" encoding="UTF-8"?>
<svg id="Capa_2" data-name="Capa 2" xmlns="http://www.w3.org/2000/svg" xmlns:xlink="http://www.w3.org/1999/xlink" viewBox="0 0 35 35">
  <defs>
    <style>
      .cls-1 {
        isolation: isolate;
      }

      .cls-2 {
        fill: #fff;
      }

      .cls-3 {
        fill: url(#Degradado_sin_nombre_2);
      }
    </style>
    <linearGradient id="Degradado_sin_nombre_2" data-name="Degradado sin nombre 2" x1="0" y1="17.5" x2="35" y2="17.5" gradientUnits="userSpaceOnUse">
      <stop offset="0" stop-color="#00ff89"/>
      <stop offset="1" stop-color="#5541ff"/>
    </linearGradient>
  </defs>
  <g id="TXTS">
    <g class="cls-1">
      <rect class="cls-3" width="35" height="35" rx="5.74" ry="5.74"/>
      <g id="_8ZDd40" data-name="8ZDd40">
        <g>
          <path class="cls-2" d="M12.01,27.24h-.57c-.23-.09-.43-.18-.63-.34-.95-.78-1.8-1.93-2.74-2.74-.16-.18-.24-.39-.32-.61v-.57l.25-.5,14.55-14.53c.51-.32,1.18-.26,1.63.15.81.94,1.94,1.78,2.72,2.72.3.36.41.73.32,1.2-.11.58-.83,1.01-1.18,1.44l-2.04-2.03c-.52-.35-1.11.25-.78.78l2.03,2.04-.89.89c-.09,0-.99-1.09-1.26-1.21-.43-.2-.87.1-.81.58.05.4,1,1.06,1.25,1.42.01.07-.75.77-.86.89l-.07-.03-1.98-1.98c-.51-.32-1.11.23-.79.75.67.7,1.4,1.35,2.03,2.07l-.89.9-1.22-1.21c-.5-.29-1.06.26-.77.77l1.21,1.22-.89.89-2.04-2.03c-.52-.35-1.12.25-.78.78l2.03,2.04-.89.89c-.09,0-.99-1.09-1.26-1.21-.51-.24-.99.24-.75.75.13.28,1.17,1.13,1.19,1.25,0,.03-.02.05-.03.07-.04.06-.75.77-.8.8-.04.02-.06.02-.1-.02l-1.98-1.98c-.51-.32-1.11.23-.79.75.67.7,1.4,1.35,2.03,2.07l-.89.9-1.22-1.21c-.5-.3-1.06.27-.77.77l1.21,1.22c-.47.41-.82,1-1.45,1.2Z"/>
          <path class="cls-2" d="M7.75,8.09v-.27l.17-.08c1.23.34,2.64.54,3.84.96.75.27,1.38.78,1.89,1.37l-3.56,3.56c-.69-.61-1.18-1.23-1.45-2.12-.35-1.12-.53-2.32-.89-3.43Z"/>
          <path class="cls-2" d="M25.15,27.24c-.18.02-.66.02-.84,0-.31-.04-.89-.32-1.14-.52-.29-.23-1.09-1.02-1.32-1.31-.02-.03-.06-.04-.05-.09l3.55-3.52c.67.73,1.62,1.32,1.84,2.35.3,1.36-.62,2.91-2.04,3.09Z"/>
          <rect class="cls-2" x="19.17" y="20.16" width="5.03" height="3.04" transform="translate(-8.98 21.68) rotate(-45)"/>
          <rect class="cls-2" x="11.04" y="12.29" width="5.03" height="2.45" transform="translate(-5.59 13.54) rotate(-45)"/>
        </g>
      </g>
    </g>
  </g>
</svg>