<?xml version="1.0" encoding="UTF-8"?>
<svg id="Capa_2" data-name="Capa 2" xmlns="http://www.w3.org/2000/svg" xmlns:xlink="http://www.w3.org/1999/xlink" viewBox="0 0 35 35">
  <defs>
    <style>
      .cls-1 {
        isolation: isolate;
      }

      .cls-2 {
        fill: #fff;
      }

      .cls-3 {
        fill: url(#Degradado_sin_nombre_2);
      }
    </style>
    <linearGradient id="Degradado_sin_nombre_2" data-name="Degradado sin nombre 2" x1="0" y1="17.5" x2="35" y2="17.5" gradientUnits="userSpaceOnUse">
      <stop offset="0" stop-color="#00ff89"/>
      <stop offset="1" stop-color="#5541ff"/>
    </linearGradient>
  </defs>
  <g id="TXTS">
    <g class="cls-1">
      <rect class="cls-3" width="35" height="35" rx="5.74" ry="5.74"/>
      <g id="Jqjb1G">
        <g>
          <path class="cls-2" d="M28.5,23.5H6.5v-13.05c0-.6.73-1.48,1.34-1.62,6.19-.34,12.47-.05,18.69-.15.7.09,1.39.41,1.71,1.06.05.09.25.66.25.71v13.05ZM26.46,10.72H8.54v10.74h17.91v-10.74Z"/>
          <path class="cls-2" d="M29.74,23.89v1.58c0,.34-1,.95-1.38.82H6.55c-.36.1-1.29-.5-1.29-.82v-1.58h24.48ZM19.22,24.84h-3.44v.86h3.44v-.86Z"/>
        </g>
      </g>
    </g>
  </g>
</svg>