<?xml version="1.0" encoding="UTF-8"?>
<svg id="Capa_2" data-name="Capa 2" xmlns="http://www.w3.org/2000/svg" xmlns:xlink="http://www.w3.org/1999/xlink" viewBox="0 0 35 35">
  <defs>
    <style>
      .cls-1 {
        isolation: isolate;
      }

      .cls-2 {
        fill: #fff;
      }

      .cls-3 {
        fill: url(#Degradado_sin_nombre_2);
      }
    </style>
    <linearGradient id="Degradado_sin_nombre_2" data-name="Degradado sin nombre 2" x1="0" y1="17.5" x2="35" y2="17.5" gradientUnits="userSpaceOnUse">
      <stop offset="0" stop-color="#00ff89"/>
      <stop offset="1" stop-color="#5541ff"/>
    </linearGradient>
  </defs>
  <g id="TXTS">
    <g class="cls-1">
      <rect class="cls-3" width="35" height="35" rx="5.74" ry="5.74"/>
      <g id="g6e0Ax">
        <g>
          <path class="cls-2" d="M10.7,21.38c.9-.26,1.84-.4,2.77-.29.79.1,1.58.35,2.4.45.58.07,1.19.1,1.77.13.79.04,2.48-.23,2.54.97.03.67-.45.98-1.01,1.18-1.23.42-2.66.26-3.94.26-.22.1-.23.4-.01.51.18.09.48.03.69.05,1.5.09,4.31.16,4.83-1.65,1.58-.54,3.13-1.37,4.71-1.89.67-.22,1.66-.35,2.05.41.33.64-.08.91-.53,1.27-1.13.92-2.79,1.78-4.1,2.45-3.05,1.58-5.25,2.4-8.8,1.91-1.13-.16-2.22-.49-3.35-.65v-5.11Z"/>
          <path class="cls-2" d="M18.89,7.09c4.62-.44,6.86,5.31,3.22,8.04-3.15,2.36-7.62-.27-7.12-4.15.25-1.97,1.9-3.7,3.9-3.89ZM20.55,11.03c.1-.51.24-1.95-.36-2.18s-.96.65-1.06,1.1c-.14.64-.03,1.18-.89,1.3v2.74c.34-.02.66.14.98.2.51.08,2.13.12,2.48-.27.16-.18.29-.71.35-.96.09-.38.28-1.46.02-1.75-.05-.06-.37-.18-.43-.18h-1.09ZM16.67,11.18v2.93c0,.15,1.03.15,1.03,0v-2.93c0-.14-.98-.16-1.03,0Z"/>
          <path class="cls-2" d="M11.92,11.79c.84-.07,1.71.13,2.44.54.28,1.33.95,2.53,2.06,3.34.22.32-.08,1.47-.22,1.85-1.13,3.02-5.15,3.64-7.2,1.16-2.17-2.62-.45-6.62,2.92-6.89ZM13.09,14.81c-.1-.2-.63-1.47-.74-1.51-.12-.04-.19.01-.25.1-.27.37-.42,1.01-.68,1.4-.26.12-1.56.13-1.68.27-.06.07-.06.18,0,.25l1.15,1.12c-.03.46-.27,1.04-.28,1.48,0,.15,0,.26.19.27.52-.2.98-.54,1.48-.77l1.34.75c.18.06.33.02.32-.2,0-.26-.35-1.43-.3-1.56.39-.39.83-.74,1.2-1.15.03-.15,0-.19-.14-.24-.27-.09-1.51-.14-1.61-.23Z"/>
          <path class="cls-2" d="M25.95,15.28v4.82h-3.9c-.43.46-.79,1.01-1.2,1.47-.02.03,0,.08-.09.05v-1.53h-1.32v-3.46c.91.01,1.83-.25,2.61-.71.17-.1.82-.65.87-.65h3.03ZM21.31,17.35c-.43-.46-1.17.2-.73.67s1.17-.2.73-.67ZM22.51,17.22c-.52.12-.38,1.14.34.92.5-.15.36-1.08-.34-.92ZM24.24,17.22c-.54.12-.38,1.15.34.92.48-.15.37-1.08-.34-.92Z"/>
          <path class="cls-2" d="M7.76,20.69c.26-.05,1.65-.05,1.93,0,.19.03.33.17.38.36v5.64c.01.21-.2.42-.39.46-.26.05-1.56.05-1.84,0-.2-.03-.35-.17-.43-.36v-5.68c0-.2.15-.38.35-.42Z"/>
        </g>
      </g>
    </g>
  </g>
</svg>