<?xml version="1.0" encoding="UTF-8"?>
<svg id="Capa_2" data-name="Capa 2" xmlns="http://www.w3.org/2000/svg" xmlns:xlink="http://www.w3.org/1999/xlink" viewBox="0 0 35 35">
  <defs>
    <style>
      .cls-1 {
        isolation: isolate;
      }

      .cls-2 {
        fill: #fff;
      }

      .cls-3 {
        fill: url(#Degradado_sin_nombre_2);
      }
    </style>
    <linearGradient id="Degradado_sin_nombre_2" data-name="Degradado sin nombre 2" x1="0" y1="17.5" x2="35" y2="17.5" gradientUnits="userSpaceOnUse">
      <stop offset="0" stop-color="#00ff89"/>
      <stop offset="1" stop-color="#5541ff"/>
    </linearGradient>
  </defs>
  <g id="TXTS">
    <g class="cls-1">
      <rect class="cls-3" x="0" width="35" height="35" rx="5.74" ry="5.74"/>
      <g id="Ci8F9p">
        <g>
          <path class="cls-2" d="M7.9,23.76v-4.75c.26-1.22,1.2-2.05,2.45-2.13.85-.06,1.9-.01,2.56.59-.66.76-1.17,1.56-1.4,2.56-.3,1.3-.24,3.01-.21,4.36,0,.05.07.24-.02.24h-2.47s-.25-.08-.28-.09c-.3-.13-.54-.46-.64-.77Z"/>
          <path class="cls-2" d="M17.28,16.85c1.71-.03,3.01.29,4.16,1.61,1.24,1.43,1.08,2.76,1.08,4.53,0,.7.19,1.85-.32,2.41-.22.24-.55.32-.87.37-2.43.35-5.26-.14-7.73.04-.57-.07-1.11-.53-1.17-1.11-.1-.89-.09-2.23-.04-3.14.14-2.9,1.99-4.67,4.89-4.72Z"/>
          <path class="cls-2" d="M17.24,9.11c2.46-.18,4.2,2.35,3.22,4.6-.98,2.24-4.1,2.62-5.58.66-1.57-2.08-.22-5.07,2.36-5.26Z"/>
          <path class="cls-2" d="M23.66,24.62c-.09-.03-.02-.17-.02-.24.03-1.55.13-3.63-.42-5.08-.27-.71-.71-1.26-1.19-1.84.65-.6,1.68-.64,2.52-.59,1.2.07,2.33.92,2.47,2.16.17,1.43-.1,3.16,0,4.62-.02.4-.56.96-.95.96h-2.43Z"/>
          <path class="cls-2" d="M10.74,11.51c2.75-.21,2.99,3.95.32,4.14-2.74.19-3.02-3.94-.32-4.14Z"/>
          <path class="cls-2" d="M23.9,11.51c2.75-.21,2.99,3.95.32,4.14-2.74.19-3.02-3.94-.32-4.14Z"/>
        </g>
      </g>
    </g>
  </g>
</svg>