<?xml version="1.0" encoding="UTF-8"?>
<svg id="Capa_2" data-name="Capa 2" xmlns="http://www.w3.org/2000/svg" xmlns:xlink="http://www.w3.org/1999/xlink" viewBox="0 0 35 35">
  <defs>
    <style>
      .cls-1 {
        isolation: isolate;
      }

      .cls-2 {
        fill: #fff;
      }

      .cls-3 {
        fill: url(#Degradado_sin_nombre_2);
      }
    </style>
    <linearGradient id="Degradado_sin_nombre_2" data-name="Degradado sin nombre 2" x1="0" y1="17.5" x2="35" y2="17.5" gradientUnits="userSpaceOnUse">
      <stop offset="0" stop-color="#00ff89"/>
      <stop offset="1" stop-color="#5541ff"/>
    </linearGradient>
  </defs>
  <g id="TXTS">
    <g class="cls-1">
      <rect class="cls-3" x="0" width="35" height="35" rx="5.74" ry="5.74"/>
      <g id="_6D5gXb" data-name="6D5gXb">
        <g>
          <path class="cls-2" d="M16.53,8.94c.2-.04.45-.02.6.13l8.11,8.11c.23.29.15.67-.12.9l-6.87,3.66-5.68-5.68,3.67-6.94c.06-.07.19-.17.29-.19Z"/>
          <path class="cls-2" d="M12.27,17.54l4.46,4.46-.05.09c-1.15,1.02-2.43,3.16-4.21,1.88-.44-.32-2.08-1.96-2.31-2.4-.94-1.79,1.15-2.9,2.12-4.04Z"/>
          <path class="cls-2" d="M17.62,22.89c.7.8,1.84,1.38,1.53,2.63-.27,1.1-1.63,1.56-2.52.86-.26-.2-1.02-.96-1.22-1.22-.02-.03-.07-.05-.06-.1l2.26-2.18Z"/>
          <path class="cls-2" d="M8.99,22.06c.22.3.42.61.67.89.68.77,1.64,1.71,2.49,2.26.05.03.09.05.03.09-.16.11-.79.15-1,.13-1.65-.14-2.7-1.81-2.19-3.37Z"/>
          <path class="cls-2" d="M23.8,9.73c.59-.11.98.39.73.93-.07.15-1.24,1.33-1.42,1.45-.59.4-1.28-.16-.97-.81.08-.16,1.16-1.25,1.35-1.4.09-.07.19-.15.3-.17Z"/>
          <path class="cls-2" d="M20.65,8.01s.13.18.14.23c.06.17.06,1.48.01,1.68-.14.59-1.12.57-1.23-.03-.04-.23-.04-1.41,0-1.62.1-.45.76-.58,1.07-.26Z"/>
          <path class="cls-2" d="M24.13,14.58c-.32-.31-.19-.96.26-1.07.21-.05,1.4-.05,1.62,0,.61.11.62,1.09.03,1.23-.19.05-1.51.04-1.68-.01-.05-.02-.19-.1-.23-.14Z"/>
        </g>
      </g>
    </g>
  </g>
</svg>