<?xml version="1.0" encoding="UTF-8"?>
<svg id="Capa_2" data-name="Capa 2" xmlns="http://www.w3.org/2000/svg" xmlns:xlink="http://www.w3.org/1999/xlink" viewBox="0 0 35 35">
  <defs>
    <style>
      .cls-1 {
        isolation: isolate;
      }

      .cls-2 {
        fill: #fff;
      }

      .cls-3 {
        fill: url(#Degradado_sin_nombre_2);
      }
    </style>
    <linearGradient id="Degradado_sin_nombre_2" data-name="Degradado sin nombre 2" x1="0" y1="17.5" x2="35" y2="17.5" gradientUnits="userSpaceOnUse">
      <stop offset="0" stop-color="#00ff89"/>
      <stop offset="1" stop-color="#5541ff"/>
    </linearGradient>
  </defs>
  <g id="TXTS">
    <g class="cls-1">
      <rect class="cls-3" x="0" width="35" height="35" rx="5.74" ry="5.74"/>
      <g id="Oz7tsw">
        <g>
          <path class="cls-2" d="M12.6,12.05c-.02,2.07,1.57,3.96,3.56,4.42.9.21,2.13.18,3.01-.09,1.85-.56,3.25-2.37,3.24-4.32,1.65.63,2.7,2.06,3,3.78.55,3.15.24,7.43-3.38,8.49-2.32.68-6.25.64-8.6.11-3.85-.86-4.27-4.61-3.92-7.96.21-2,1.15-3.68,3.09-4.42ZM14.46,17.96c-.35.03-.75.32-.84.67-.07.27-.07,1.24-.03,1.53.15,1.03,1.62,1.06,1.87.11.09-.34.07-1.52-.09-1.82s-.57-.51-.91-.48ZM20.37,17.96c-.32.03-.67.28-.79.58s-.13,1.28-.08,1.62c.15.96,1.59,1.1,1.86.16.08-.28.09-1.29.04-1.59-.07-.46-.57-.81-1.03-.77Z"/>
          <path class="cls-2" d="M16.1,10.21c.82-.05,1.85-.06,2.67-.02,3.68.18,2.52,4.35-.23,5-.62.15-1.59.14-2.2-.03-2.64-.71-3.71-4.75-.24-4.96Z"/>
          <path class="cls-2" d="M26.56,21.31c.04-.55.16-1.11.2-1.67.07-.98.07-2.09,0-3.07-.04-.55-.17-1.11-.16-1.67.68.26,1.29.94,1.5,1.64.16.54.16,2.05.1,2.65-.08.9-.78,1.84-1.64,2.12Z"/>
          <path class="cls-2" d="M8.43,14.91c-.05.55-.16,1.11-.2,1.67-.07.99-.07,2.08,0,3.07.04.55.17,1.11.16,1.67-.59-.22-1.14-.78-1.39-1.35-.33-.76-.33-2.98.02-3.74.24-.54.83-1.13,1.4-1.31Z"/>
        </g>
      </g>
    </g>
  </g>
</svg>