<?xml version="1.0" encoding="UTF-8"?>
<svg id="Capa_2" data-name="Capa 2" xmlns="http://www.w3.org/2000/svg" xmlns:xlink="http://www.w3.org/1999/xlink" viewBox="0 0 35 35">
  <defs>
    <style>
      .cls-1 {
        isolation: isolate;
      }

      .cls-2 {
        fill: #fff;
      }

      .cls-3 {
        fill: url(#Degradado_sin_nombre_2);
      }
    </style>
    <linearGradient id="Degradado_sin_nombre_2" data-name="Degradado sin nombre 2" x1="0" y1="17.5" x2="35" y2="17.5" gradientUnits="userSpaceOnUse">
      <stop offset="0" stop-color="#00ff89"/>
      <stop offset="1" stop-color="#5541ff"/>
    </linearGradient>
  </defs>
  <g id="TXTS">
    <g class="cls-1">
      <rect class="cls-3" x="0" width="35" height="35" rx="5.74" ry="5.74"/>
      <g id="ckuQL6">
        <g>
          <path class="cls-2" d="M26.12,15.52c-.46-.12-.92.02-1.3.29-.01-.05.02-.37,0-.37h-2.61v2.61h1.1l-.71,1.26c-.1.08-.26.03-.39.04v.63c-.86,1.63-1.94,3.2-2.79,4.83-.14.26-.43.84-.43,1.12v.83h-7.8c-.94,0-1.92-.98-2.02-1.89v-12.34c.14-.9.81-1.65,1.71-1.84,4.5-.1,9.03-.1,13.53,0,.69.05,1.71,1.09,1.71,1.75v3.07ZM13.09,11.98h-1.89c-.06,0-.39.18-.45.24-.1.1-.26.42-.26.55v1.36h2.61v-2.16ZM24.82,14.14v-1.36c0-.13-.16-.45-.26-.55-.06-.06-.39-.24-.45-.24h-1.89v2.16h2.61ZM13.09,15.44h-2.61v2.61h2.61v-2.61ZM16.01,16.06c-.32.04-.68.34-.72.66.09,1.38-.13,2.92,0,4.27.06.63.7.94,1.25.68,1.05-.74,2.5-1.28,3.5-2.03.65-.49.52-1.12-.11-1.53-.93-.6-2.26-1.38-3.25-1.88-.24-.12-.37-.21-.66-.17ZM13.09,19.35h-2.61v2.61h2.61v-2.61ZM13.09,23.26h-2.61v1.36c0,.13.16.45.26.55.06.06.39.24.45.24h1.89v-2.16Z"/>
          <path class="cls-2" d="M26.53,19.43l-3.95,6.92-2.3-1.3,3.97-6.91,2.28,1.29ZM24.6,19.64c-.13.02-.26.14-.33.24-.08.11-.63,1.04-.66,1.14-.14.47.36.77.7.45.08-.08.7-1.15.73-1.26.08-.29-.12-.6-.44-.56Z"/>
          <path class="cls-2" d="M23.31,26.76l.73-1.33c.45-.15.72-.36.77-.86.02-.18-.03-.36.04-.53l1.27-2.17v3.07c0,.82-1.21,1.81-2.02,1.81h-.79Z"/>
          <path class="cls-2" d="M25.58,16.34c.11-.02.28-.02.39,0,.19.03,1,.49,1.16.63.26.23.34.54.28.88-.02.09-.39.79-.44.83-.04.03-.08.02-.12,0l-2.14-1.24s-.02-.08,0-.12c.02-.07.36-.63.41-.69.1-.11.31-.25.46-.28Z"/>
          <path class="cls-2" d="M19.85,25.93s.05-.11.06-.1l2.14,1.24c-.09.11-.2.18-.31.26-.2.14-1.17.69-1.36.72s-.53-.15-.53-.33c0-.51-.07-1.32,0-1.79Z"/>
        </g>
      </g>
      <path class="cls-2" d="M12.67,9.12c.33,0,1.25.58,1.48.21.16-.26-.25-1.04-.26-1.38,0-.37.5-1.22.21-1.45-.27-.22-1,.21-1.35.22-.4.01-1.23-.48-1.5-.22-.22.21.23,1.08.25,1.37.02.4-.56,1.18-.22,1.48.29.25,1.02-.23,1.4-.23Z"/>
      <path class="cls-2" d="M6.96,14.51c.29,0,1.08.5,1.27.18.14-.22-.22-.89-.22-1.19,0-.32.43-1.05.18-1.25-.23-.19-.86.18-1.16.19-.34,0-1.06-.42-1.3-.19-.19.19.2.93.21,1.18.02.35-.49,1.02-.19,1.28.25.21.88-.2,1.2-.2Z"/>
      <path class="cls-2" d="M7.1,9.81c.42.1,1.41,1.11,1.81.72.28-.27,0-1.39.1-1.83.11-.47,1-1.39.7-1.78-.28-.36-1.33-.03-1.78-.13-.5-.11-1.41-.99-1.84-.74-.35.2-.03,1.43-.1,1.81-.1.52-1.07,1.33-.73,1.81.29.4,1.36.02,1.84.13Z"/>
    </g>
  </g>
</svg>