<?xml version="1.0" encoding="UTF-8"?>
<svg id="Capa_2" data-name="Capa 2" xmlns="http://www.w3.org/2000/svg" viewBox="0 0 15 17.16">
  <defs>
    <style>
      .cls-1 {
        fill: #646464;
      }
    </style>
  </defs>
  <g id="Blocks">
    <path class="cls-1" d="M6.56,17.16c-1.74,0-3.4-.68-4.64-1.89-2.6-2.7-2.55-6.98.11-9.61L6.2,1.48c1.7-1.75,4.44-1.98,6.41-.53,2.1,1.61,2.5,4.62.88,6.72-.13.16-.26.32-.41.47l-4.37,4.37c-.49.51-1.14.84-1.85.94-.96.1-1.9-.27-2.53-.99-.96-1.23-.86-2.99.24-4.11l3.33-3.32c.42-.42,1.11-.42,1.53,0h0c.42.42.42,1.11,0,1.53l-3.43,3.43c-.3.3-.3.79,0,1.09s.79.3,1.09,0l4.4-4.4c.9-.88,1.07-2.27.4-3.34-.79-1.22-2.42-1.57-3.64-.77-.15.1-.29.21-.42.34L3.5,7.24c-1.64,1.6-1.86,4.16-.5,6,1.51,1.97,4.33,2.33,6.29.83.15-.12.3-.25.44-.38l3.43-3.43c.42-.42,1.11-.42,1.53,0h0c.42.42.42,1.11,0,1.53l-3.43,3.43c-1.24,1.25-2.93,1.95-4.7,1.94Z"/>
  </g>
</svg>