<?xml version="1.0" encoding="UTF-8"?>
<svg id="Capa_2" data-name="Capa 2" xmlns="http://www.w3.org/2000/svg" viewBox="0 0 20 20">
  <defs>
    <style>
      .cls-1 {
        fill: #646464;
      }
    </style>
  </defs>
  <g id="Blocks">
    <path class="cls-1" d="M10,0C4.49,0,0,4.49,0,10s4.49,10,10,10,10-4.49,10-10S15.51,0,10,0ZM10,18.33c-4.59,0-8.33-3.74-8.33-8.33S5.41,1.67,10,1.67s8.33,3.74,8.33,8.33-3.74,8.33-8.33,8.33ZM15,10c0,2.47-1.81,4.53-4.17,4.93v.9c0,.46-.37.83-.83.83s-.83-.37-.83-.83v-.9c-2.36-.4-4.17-2.46-4.17-4.93,0-.46.37-.83.83-.83s.83.37.83.83c0,1.84,1.49,3.33,3.33,3.33s3.33-1.49,3.33-3.33c0-.46.37-.83.83-.83s.83.37.83.83ZM8.33,10v-4.17c0-.92.75-1.67,1.67-1.67s1.67.75,1.67,1.67v4.17c0,.92-.75,1.67-1.67,1.67s-1.67-.75-1.67-1.67Z"/>
  </g>
</svg>