<?xml version="1.0" encoding="UTF-8"?>
<svg id="Capa_2" data-name="Capa 2" xmlns="http://www.w3.org/2000/svg" xmlns:xlink="http://www.w3.org/1999/xlink" viewBox="0 0 50 50">
  <defs>
    <style>
      .cls-1 {
        fill: #fff;
      }

      .cls-2 {
        fill: url(#Degradado_sin_nombre_52);
      }
    </style>
    <linearGradient id="Degradado_sin_nombre_52" data-name="Degradado sin nombre 52" x1="0" y1="25" x2="50" y2="25" gradientUnits="userSpaceOnUse">
      <stop offset="0" stop-color="#5540ff"/>
      <stop offset="1" stop-color="#00fe8a"/>
    </linearGradient>
  </defs>
  <g id="Blocks">
    <g>
      <circle class="cls-2" cx="25" cy="25" r="25"/>
      <g id="hIKgT5">
        <path class="cls-1" d="M11.91,23.62c.14-.33.33-.56.66-.72l22.03-8.78c.8-.11,1.39.48,1.28,1.28l-8.8,22.06c-.13.31-.41.49-.7.63h-.61c-.23-.12-.45-.23-.6-.45-1.2-3.1-2.31-6.24-3.44-9.37l-9.12-3.31c-.37-.12-.54-.4-.7-.72v-.61ZM26.15,33.87l6.65-16.67-16.67,6.65,6.16,2.25.1-.04,3.3-3.3c1.08-.72,2.28.49,1.56,1.56l-3.3,3.3-.04.1,2.25,6.16Z"/>
      </g>
    </g>
  </g>
</svg>