<?xml version="1.0" encoding="UTF-8"?>
<svg id="Capa_2" data-name="Capa 2" xmlns="http://www.w3.org/2000/svg" xmlns:xlink="http://www.w3.org/1999/xlink" viewBox="0 0 40 40">
  <defs>
    <style>
      .cls-1 {
        fill: #fff;
      }

      .cls-2 {
        fill: url(#Degradado_sin_nombre_24);
      }
    </style>
    <linearGradient id="Degradado_sin_nombre_24" data-name="Degradado sin nombre 24" x1="0" y1="20" x2="40" y2="20" gradientUnits="userSpaceOnUse">
      <stop offset=".1" stop-color="#26297b"/>
      <stop offset=".8" stop-color="#377cc7"/>
    </linearGradient>
  </defs>
  <g id="TXTS">
    <g>
      <circle class="cls-2" cx="20" cy="20" r="20"/>
      <g>
        <path class="cls-1" d="M24.08,19.72v1.47c0,.12.1.22.22.22h3.43c.2,0,.37.16.37.37v1.01c0,.29-.24.52-.52.52h-5.05s-.09-.03-.11-.07l-1.87-4.7s0-.04,0-.06c.1-1,.96-1.8,1.99-1.8h6.71c.07,0,.12-.05.12-.12v-1.67c0-.07-.05-.12-.12-.12h-6.71c-1.17,0-2.22.52-2.94,1.34-.05.06-.14.05-.18,0-.68-.84-1.69-1.33-2.83-1.33-1.52,0-2.83.88-3.39,2.3l-3.17,7.95c-.04.09.03.19.13.19h1.75c.06,0,.11-.03.13-.09l2.93-7.35c.27-.69.88-1.1,1.62-1.1s1.34.41,1.62,1.1l.43,1.07,2.42,6.07.05.12c.04.11.15.18.26.18h6.5c1.19,0,2.16-.97,2.16-2.16v-3.3c0-.14-.11-.26-.26-.26h-5.44c-.12,0-.22.1-.22.22Z"/>
        <path class="cls-1" d="M17.92,23.63l-.43-.16c-.35-.13-.63-.41-.76-.76l-.16-.43s-.02-.03-.04-.03-.03.01-.04.03l-.16.43c-.13.35-.41.63-.76.76l-.43.16s-.03.02-.03.04.01.03.03.04l.43.16c.35.13.63.41.76.76l.16.43s.02.03.04.03.03-.01.04-.03l.16-.43c.13-.35.41-.63.76-.76l.43-.16s.03-.02.03-.04-.01-.03-.03-.04Z"/>
      </g>
    </g>
  </g>
</svg>