<?xml version="1.0" encoding="UTF-8"?>
<svg id="Capa_2" data-name="Capa 2" xmlns="http://www.w3.org/2000/svg" viewBox="0 0 20 20">
  <defs>
    <style>
      .cls-1 {
        fill: #646464;
      }
    </style>
  </defs>
  <g id="Blocks">
    <g>
      <path class="cls-1" d="M10,0C4.49,0,0,4.49,0,10s4.49,10,10,10,10-4.49,10-10S15.51,0,10,0ZM10,18.33c-4.59,0-8.33-3.74-8.33-8.33S5.41,1.67,10,1.67s8.33,3.74,8.33,8.33-3.74,8.33-8.33,8.33Z"/>
      <g>
        <rect class="cls-1" x="7.62" y="5" width="2" height="10" rx="1" ry="1"/>
        <rect class="cls-1" x="10.38" y="6.5" width="2" height="7" rx="1" ry="1"/>
        <rect class="cls-1" x="13.14" y="8" width="2" height="4" rx="1" ry="1"/>
        <rect class="cls-1" x="4.86" y="8" width="2" height="4" rx="1" ry="1"/>
      </g>
    </g>
  </g>
</svg>