<?xml version="1.0" encoding="UTF-8"?>
<svg id="Capa_2" data-name="Capa 2" xmlns="http://www.w3.org/2000/svg" viewBox="0 0 24 24">
  <defs>
    <style>
      .cls-1 {
        fill: #fff;
      }

      .cls-2 {
        opacity: .8;
      }
    </style>
  </defs>
  <g id="TXTS">
    <g>
      <circle class="cls-2" cx="12" cy="12" r="12"/>
      <g>
        <path class="cls-1" d="M11.17,14.12c.23.23.53.35.85.35s.62-.12.85-.35l2.49-2.49c.38-.36.39-.97.02-1.34-.36-.38-.97-.39-1.36,0l-1.05,1.05v-4.86c-.01-.52-.44-.95-.96-.95s-.95.43-.95.95v4.85s-1.03-1.04-1.03-1.04c-.18-.18-.43-.28-.68-.27-.25,0-.49.11-.67.29-.36.37-.36.95,0,1.32l2.49,2.49Z"/>
        <path class="cls-1" d="M17.92,13.33c-.18-.18-.42-.28-.67-.28-.52,0-.95.43-.95.95v2.3s-8.6,0-8.6,0v-2.3c0-.52-.43-.95-.95-.95s-.95.43-.95.95v3c0,.66.54,1.2,1.2,1.2h10c.66,0,1.2-.54,1.2-1.2v-3c0-.25-.1-.49-.28-.67Z"/>
      </g>
    </g>
  </g>
</svg>