<?xml version="1.0" encoding="UTF-8"?>
<svg id="Capa_2" data-name="Capa 2" xmlns="http://www.w3.org/2000/svg" viewBox="0 0 18.06 18.09">
  <defs>
    <style>
      .cls-1 {
        fill: #fff;
      }
    </style>
  </defs>
  <g id="TXTS">
    <g id="HzP8kt">
      <g>
        <path class="cls-1" d="M0,4.49C.1,3.12,1.69,1.42,3.09,1.42h1.15v-.9s.1-.19.13-.23c.3-.4.86-.4,1.16,0,.03.04.13.19.13.23v.9h5.64v-.9s.1-.19.13-.23c.3-.4.86-.4,1.16,0,.03.04.13.19.13.23v.9h1.15c1.29,0,2.66,1.4,2.98,2.6.15.55.17,1.89.11,2.47-.02.2-.31.58-.51.58H1.41v6.44c0,1.13,1.04,1.95,2.1,2.03,1.15.08,2.4-.06,3.56,0,.75.16.79,1.17.06,1.4-1.28-.06-2.67.1-3.94,0-1.55-.11-3.03-1.51-3.19-3.07V4.49ZM4.23,2.83h-.79c-1.01,0-2.03,1.02-2.03,2.03v.79h14.11v-.79c0-1.01-1.02-2.03-2.03-2.03h-.79v.9s-.1.19-.13.23c-.3.4-.86.4-1.16,0-.03-.04-.13-.19-.13-.23v-.9h-5.64v.9s-.1.19-.13.23c-.3.4-.86.4-1.16,0-.03-.04-.13-.19-.13-.23v-.9Z"/>
        <path class="cls-1" d="M13.69,18.07c-.29.03-.84.03-1.13,0-2.22-.2-4.21-2.24-4.37-4.46-.39-5.27,6.42-7.48,9.15-3.08,1.87,3.02-.07,7.22-3.65,7.55ZM13.01,9.62c-2.79.07-4.4,3.34-2.72,5.6,1.48,1.99,4.49,1.89,5.81-.21,1.5-2.38-.3-5.46-3.09-5.38Z"/>
        <path class="cls-1" d="M3.34,8.49c1.15-.21,1.21,1.53.06,1.4-.76-.09-.77-1.27-.06-1.4Z"/>
        <path class="cls-1" d="M6.16,8.49c1.15-.21,1.21,1.53.06,1.4-.76-.09-.77-1.27-.06-1.4Z"/>
        <path class="cls-1" d="M3.34,11.31c1.15-.21,1.21,1.53.06,1.4-.76-.09-.77-1.27-.06-1.4Z"/>
        <path class="cls-1" d="M6.16,11.31c1.15-.21,1.21,1.53.06,1.4-.76-.09-.77-1.27-.06-1.4Z"/>
        <path class="cls-1" d="M13.83,12.43h.9c.08,0,.3.18.35.25.36.43.1,1.11-.46,1.17-.38.04-1.25.04-1.62,0-.27-.03-.55-.31-.58-.58-.04-.37-.04-1.24,0-1.62.05-.56.74-.82,1.17-.46.07.06.25.28.25.35v.9Z"/>
      </g>
    </g>
  </g>
</svg>