<?xml version="1.0" encoding="UTF-8"?>
<svg id="Capa_2" data-name="Capa 2" xmlns="http://www.w3.org/2000/svg" xmlns:xlink="http://www.w3.org/1999/xlink" viewBox="0 0 35 35">
  <defs>
    <style>
      .cls-1 {
        isolation: isolate;
      }

      .cls-2 {
        fill: #fff;
      }

      .cls-3 {
        fill: url(#Degradado_sin_nombre_2);
      }
    </style>
    <linearGradient id="Degradado_sin_nombre_2" data-name="Degradado sin nombre 2" x1="0" y1="17.5" x2="35" y2="17.5" gradientUnits="userSpaceOnUse">
      <stop offset="0" stop-color="#00ff89"/>
      <stop offset="1" stop-color="#5541ff"/>
    </linearGradient>
  </defs>
  <g id="TXTS">
    <g class="cls-1">
      <rect class="cls-3" width="35" height="35" rx="5.74" ry="5.74"/>
      <g id="_1hTodF" data-name="1hTodF">
        <g>
          <path class="cls-2" d="M15.6,12.99c.46-.06.81,0,1.19.28,1.43,1.64,3.43,3.13,4.8,4.78.33.4.55.79.43,1.34-.54,1.3-.66,3.55-1.3,4.73-.16.29-.52.6-.85.66-.73.13-1.72.03-2.47.09-2.28.18-4.49.67-6.67,1.33-.5.15-1.12.53-1.64.48-.62-.06-.86-.59-.78-1.16s.6-1.67.79-2.3c.45-1.53.79-3.19.94-4.78.1-1.04.04-2.14.15-3.16.06-.56.44-.9.94-1.1.86-.33,3.59-1.08,4.48-1.18ZM17.96,19.32c0-1.26-1.02-2.28-2.28-2.28s-2.28,1.02-2.28,2.28,1.02,2.28,2.28,2.28,2.28-1.02,2.28-2.28Z"/>
          <path class="cls-2" d="M20.36,7.41c.4-.07.86-.04,1.19.21l5.94,5.97c.2.39.2,1.05-.03,1.43-.71.54-1.79,2.1-2.5,2.47-.5.26-1.16.18-1.6-.17-1.6-1.92-4.17-3.72-5.67-5.65-.38-.49-.5-1.19-.15-1.73.18-.27,2.06-2.14,2.34-2.34.14-.1.3-.18.47-.21Z"/>
        </g>
      </g>
    </g>
  </g>
</svg>