<?xml version="1.0" encoding="UTF-8"?>
<svg id="Capa_2" data-name="Capa 2" xmlns="http://www.w3.org/2000/svg" xmlns:xlink="http://www.w3.org/1999/xlink" viewBox="0 0 35 35">
  <defs>
    <style>
      .cls-1 {
        isolation: isolate;
      }

      .cls-2 {
        fill: #fff;
      }

      .cls-3 {
        fill: url(#Degradado_sin_nombre_2);
      }
    </style>
    <linearGradient id="Degradado_sin_nombre_2" data-name="Degradado sin nombre 2" x1="0" y1="17.5" x2="35" y2="17.5" gradientUnits="userSpaceOnUse">
      <stop offset="0" stop-color="#00ff89"/>
      <stop offset="1" stop-color="#5541ff"/>
    </linearGradient>
  </defs>
  <g id="TXTS">
    <g class="cls-1">
      <rect class="cls-3" x="0" width="35" height="35" rx="5.74" ry="5.74"/>
      <g id="rRQbW9">
        <g>
          <path class="cls-2" d="M10.73,10.42v1.12c0,1.05,1.03,2.04,2.05,2.14.95.09,4.64.13,5.43-.09.69-.19,1.59-1.08,1.59-1.82v-1.36c2.77-.13,2.67,2.54,2.56,4.58-1.19.01-2.29.42-3.37.85h-7.82c-.69.17-.35,1.16.06,1.16h6.24l-1.14,1.48c-1.54.11-3.28-.15-4.8,0-.39.04-.86.22-.78.71.04.22.34.54.55.54h4.46l-.4,1.47h-4.06c-.67.16-.76.99-.08,1.17h4.07c.04,1.03.28,2.02.7,2.95h-6.01c-.61,0-1.74-1.17-1.74-1.83v-11.16c.18-1.18,1.28-2.04,2.48-1.9Z"/>
          <path class="cls-2" d="M28.14,22.21c0,3.1-2.52,5.62-5.62,5.62s-5.62-2.52-5.62-5.62,2.52-5.62,5.62-5.62,5.62,2.52,5.62,5.62ZM23.31,19.51c0-.44-.35-.79-.79-.79s-.79.35-.79.79.35.79.79.79.79-.35.79-.79ZM22.26,20.83c-.24.06-.48.33-.52.57-.09.57-.08,2.59,0,3.18.11.9,1.36.91,1.54.14.1-.43.08-2.74.02-3.24-.06-.53-.53-.76-1.03-.64Z"/>
          <path class="cls-2" d="M17.49,9.56c.22.15,1.09-.22,1.42.24.2.28.16,1.78.05,2.14-.14.45-.5.77-.93.93-1.64-.09-3.72.25-5.31.03-1.22-.17-1.32-1.71-1.21-2.67.12-1.02,1.23-.47,1.56-.69.04-.03.34-.72.54-.93.93-.95,2.67-.9,3.49.15.14.18.36.78.4.8Z"/>
        </g>
      </g>
    </g>
  </g>
</svg>