<?xml version="1.0" encoding="UTF-8"?>
<svg id="Capa_2" data-name="Capa 2" xmlns="http://www.w3.org/2000/svg" xmlns:xlink="http://www.w3.org/1999/xlink" viewBox="0 0 35 35">
  <defs>
    <style>
      .cls-1 {
        fill: #fff;
      }

      .cls-2 {
        fill: url(#Degradado_sin_nombre_2);
      }
    </style>
    <linearGradient id="Degradado_sin_nombre_2" data-name="Degradado sin nombre 2" x1="0" y1="17.5" x2="35" y2="17.5" gradientUnits="userSpaceOnUse">
      <stop offset="0" stop-color="#00ff89"/>
      <stop offset="1" stop-color="#5541ff"/>
    </linearGradient>
  </defs>
  <g id="TXTS">
    <g>
      <rect class="cls-2" width="35" height="35" rx="5.74" ry="5.74"/>
      <g id="YpZS77">
        <g>
          <path class="cls-1" d="M23.19,9.85c1.55-.25,2.82,1.03,2.58,2.58-.17,1.06-1.46,1.87-2.14,2.64l-3.08-3.01c.66-.73,1.63-2.04,2.64-2.2Z"/>
          <path class="cls-1" d="M12.08,7.66c.35-.34,1.42.28,1.93.27.45-.02,1.38-.58,1.73-.3.38.3-.26,1.39-.25,1.86,0,.44.54,1.44.34,1.77-.29.47-1.47-.26-1.89-.26-.48,0-1.42.62-1.79.31-.45-.38.29-1.38.26-1.9-.02-.38-.62-1.48-.33-1.75Z"/>
          <path class="cls-1" d="M23.56,18.72c.36-.04,1.14.4,1.53.42.45.03,1.63-.7,1.89-.26s-.32,1.3-.33,1.78.73,1.5.24,1.86c-.36.26-1.24-.3-1.72-.3s-1.6.6-1.87.25c-.29-.37.3-1.35.3-1.82s-.83-1.84-.04-1.93Z"/>
          <g>
            <path class="cls-1" d="M19.83,12.69l3.1,3.1-11.2,11.2c-2.02,1.49-4.59-.97-3.14-3.04l11.25-11.25Z"/>
            <path class="cls-1" d="M8.21,13.66c.38-.11,1.17.35,1.6.37.5.02,1.1-.38,1.54-.38.91-.01.06,1.47.04,1.86-.02.48.62,1.52.28,1.9-.29.33-1.38-.28-1.78-.31-.45-.03-1.62.7-1.9.26-.24-.4.35-1.38.33-1.85-.02-.41-.76-1.67-.12-1.85Z"/>
          </g>
        </g>
      </g>
    </g>
  </g>
</svg>