<?xml version="1.0" encoding="UTF-8"?>
<svg id="Capa_2" data-name="Capa 2" xmlns="http://www.w3.org/2000/svg" xmlns:xlink="http://www.w3.org/1999/xlink" viewBox="0 0 35 35">
  <defs>
    <style>
      .cls-1 {
        isolation: isolate;
      }

      .cls-2 {
        fill: #fff;
      }

      .cls-3 {
        fill: url(#Degradado_sin_nombre_2);
      }
    </style>
    <linearGradient id="Degradado_sin_nombre_2" data-name="Degradado sin nombre 2" x1="0" y1="17.5" x2="35" y2="17.5" gradientUnits="userSpaceOnUse">
      <stop offset="0" stop-color="#00ff89"/>
      <stop offset="1" stop-color="#5541ff"/>
    </linearGradient>
  </defs>
  <g id="TXTS">
    <g class="cls-1">
      <rect class="cls-3" width="35" height="35" rx="5.74" ry="5.74"/>
      <g id="kaxhAc">
        <g>
          <path class="cls-2" d="M20.07,9.25c-1.72.57-3.44,1.18-5.11,1.88-.76.32-3.03,1.22-3.44,1.81-.46.66-.28,1.29-.32,2.02,0,.17-.07.32-.08.49-.01.41-.07,2.14.01,2.41.13.4.74-.39,1.03-.26.19.08.69,1,.9,1.17.06.05.19.11.25.07.18-.12,0-3.77.08-4.36.07-.55.38-1,.85-1.28.97-.57,2.71-1.17,3.81-1.59,1.4-.54,2.82-1.02,4.24-1.48,1.34.58,2.75,1.15,3.34,2.6.28.69.3,1.56.32,2.3.05,1.36-.04,2.73,0,4.09-1.24-.99-2.67-1.53-4.28-1.26-3.44.59-5.25,4.5-3.42,7.5.1.17.68.83.6.93-.03.04-.92.26-1.04.28-1.58.19-4.33-1.09-5.81-1.78-1.82-.86-3.29-1.51-3.46-3.79-.1-1.32,0-2.74,0-4.05.02-2.29-.48-4.59,1.8-5.94,1.32-.79,3.31-1.6,4.77-2.12,1.61-.57,2.22-.72,3.89-.12.09.03,1.11.39,1.05.48Z"/>
          <path class="cls-2" d="M26.35,22.78c0,2.12-1.72,3.83-3.83,3.83s-3.83-1.71-3.83-3.83,1.72-3.83,3.83-3.83,3.83,1.71,3.83,3.83ZM24.1,21.05c-.54.09-1.61,1.71-2.16,2.04-.26.05-.83-1.26-1.58-.81-.36.22-.34.6-.16.93.09.17,1.2,1.3,1.37,1.4.61.39,1.23-.51,1.63-.92.28-.29,1.41-1.41,1.53-1.67.25-.51-.08-1.08-.62-.99Z"/>
        </g>
      </g>
    </g>
  </g>
</svg>