<?xml version="1.0" encoding="UTF-8"?>
<svg id="Capa_2" data-name="Capa 2" xmlns="http://www.w3.org/2000/svg" xmlns:xlink="http://www.w3.org/1999/xlink" viewBox="0 0 50 50">
  <defs>
    <style>
      .cls-1 {
        isolation: isolate;
      }

      .cls-2 {
        fill: #fff;
      }

      .cls-3 {
        fill: url(#Degradado_sin_nombre_2);
      }
    </style>
    <linearGradient id="Degradado_sin_nombre_2" data-name="Degradado sin nombre 2" x1="0" y1="25" x2="50" y2="25" gradientUnits="userSpaceOnUse">
      <stop offset="0" stop-color="#00ff89"/>
      <stop offset="1" stop-color="#5541ff"/>
    </linearGradient>
  </defs>
  <g id="IMG">
    <g class="cls-1">
      <rect class="cls-3" x="0" width="50" height="50" rx="8.2" ry="8.2"/>
      <g id="_8ZDd40" data-name="8ZDd40">
        <g>
          <path class="cls-2" d="M17.16,38.91h-.82c-.33-.13-.62-.26-.9-.49-1.35-1.11-2.57-2.76-3.91-3.92-.22-.25-.34-.56-.46-.87v-.82l.35-.71,20.78-20.76c.73-.46,1.69-.37,2.33.21,1.16,1.34,2.77,2.54,3.89,3.89.42.51.59,1.05.46,1.72-.15.82-1.18,1.44-1.69,2.06l-2.91-2.9c-.74-.49-1.59.35-1.11,1.11l2.91,2.91-1.28,1.28c-.13,0-1.42-1.55-1.8-1.73-.61-.28-1.24.15-1.16.83.07.56,1.43,1.52,1.79,2.02.02.1-1.08,1.1-1.23,1.27l-.1-.05-2.84-2.82c-.73-.45-1.59.32-1.13,1.08.95,1,2,1.93,2.9,2.96l-1.27,1.28-1.75-1.73c-.71-.42-1.52.38-1.1,1.1l1.73,1.75-1.28,1.28-2.91-2.9c-.74-.49-1.6.36-1.11,1.11l2.91,2.91-1.28,1.28c-.13,0-1.42-1.55-1.8-1.73-.73-.34-1.42.34-1.07,1.07.18.4,1.67,1.61,1.7,1.78.01.05-.03.07-.05.1-.06.09-1.07,1.11-1.15,1.14-.06.03-.09.03-.14-.03l-2.84-2.82c-.73-.45-1.59.32-1.13,1.08.95,1,2,1.93,2.9,2.96l-1.27,1.28-1.75-1.73c-.72-.42-1.52.38-1.1,1.1l1.73,1.75c-.67.59-1.18,1.43-2.07,1.71Z"/>
          <path class="cls-2" d="M11.07,11.56v-.38l.24-.11c1.76.48,3.77.77,5.48,1.38,1.07.38,1.97,1.12,2.7,1.96l-5.08,5.09c-.98-.87-1.69-1.76-2.08-3.03-.49-1.6-.76-3.31-1.27-4.91Z"/>
          <path class="cls-2" d="M35.92,38.91c-.25.03-.94.03-1.2,0-.44-.06-1.27-.46-1.63-.74-.42-.33-1.56-1.46-1.88-1.87-.03-.04-.09-.06-.08-.13l5.07-5.03c.95,1.05,2.31,1.89,2.63,3.36.42,1.94-.89,4.16-2.92,4.42Z"/>
          <rect class="cls-2" x="27.38" y="28.8" width="7.19" height="4.34" transform="translate(-12.83 30.97) rotate(-45)"/>
          <rect class="cls-2" x="15.77" y="17.56" width="7.19" height="3.49" transform="translate(-7.98 19.35) rotate(-45)"/>
        </g>
      </g>
    </g>
  </g>
</svg>