<?xml version="1.0" encoding="UTF-8"?>
<svg id="Capa_2" data-name="Capa 2" xmlns="http://www.w3.org/2000/svg" viewBox="0 0 188.63 14.87">
  <defs>
    <style>
      .cls-1 {
        fill: #082a46;
      }
    </style>
  </defs>
  <g id="TXTS">
    <g id="Logo-vectors_Logo-horizontal-white" data-name="Logo-vectors Logo-horizontal-white">
      <g id="Capa_1-2" data-name="Capa 1">
        <g id="Grupo_5" data-name="Grupo 5">
          <g id="Grupo_4" data-name="Grupo 4">
            <g id="Grupo_1" data-name="Grupo 1">
              <path id="Trazado_1" data-name="Trazado 1" class="cls-1" d="M15.98,14.86c-.1,0-.19-.06-.23-.15l-4.14-10.43c-.51-1.27-1.95-1.88-3.21-1.37-.62.25-1.12.75-1.37,1.37L2.88,14.72c-.04.09-.13.15-.23.15H.24c-.14,0-.25-.13-.24-.27,0-.02,0-.04.01-.07L4.49,3.27C5.55.61,8.57-.69,11.23.37c1.33.53,2.38,1.58,2.9,2.9l4.48,11.25c.05.13-.02.28-.16.33-.02,0-.05.01-.07.01h-2.4Z"/>
              <path id="Trazado_2" data-name="Trazado 2" class="cls-1" d="M24.73,6.35c.47-.17.97-.26,1.47-.25h6.37c.92,0,1.67-.74,1.68-1.66h0c0-.93-.74-1.69-1.67-1.7,0,0,0,0,0,0h-10.4c-.19,0-.34-.15-.34-.33,0,0,0,0,0,0V.36c0-.19.15-.34.33-.34,0,0,0,0,0,0h10.4c.5,0,1,.09,1.47.25,1.75.62,2.93,2.28,2.93,4.14,0,1.87-.19,1.51-.57,2.17-.43.76-1.08,1.38-1.87,1.76h0l2.42,6.05c.07.17-.01.36-.18.42-.04.02-.09.03-.14.02h-2.21c-.14,0-.26-.09-.32-.21l-2.34-5.84h-5.56c-.92,0-1.67.74-1.68,1.66h0v4.01c0,.21-.17.38-.38.38,0,0,0,0,0,0h-1.97c-.21,0-.38-.17-.38-.38,0,0,0,0,0,0v-4.01c.02-1.86,1.18-3.51,2.93-4.14l.02.04Z"/>
              <path id="Trazado_3" data-name="Trazado 3" class="cls-1" d="M40.18,2.49V.28c0-.14.1-.25.24-.25,0,0,.01,0,.02,0h15.54c.14,0,.25.1.25.24,0,0,0,.01,0,.02v2.21c0,.14-.1.25-.24.25,0,0-.01,0-.02,0h-6.18c-.14,0-.25.1-.25.24,0,0,0,.01,0,.02v11.62c0,.14-.1.25-.24.25,0,0-.01,0-.02,0h-2.21c-.14,0-.25-.1-.25-.24,0,0,0-.01,0-.02V3c0-.14-.1-.25-.24-.25,0,0-.01,0-.02,0h-6.18c-.14,0-.25-.1-.25-.24,0,0,0-.01,0-.02h.04Z"/>
            </g>
            <g id="Grupo_2" data-name="Grupo 2">
              <path id="Trazado_4" data-name="Trazado 4" class="cls-1" d="M60.63,4.74h2.14c1.11,0,2.01.91,2.02,2.02v1.36c0,1.11-.91,2.01-2.02,2.02h-2.14c-1.11,0-2.01-.91-2.02-2.02v-1.36c0-1.11.91-2.01,2.02-2.02ZM63.79,6.77c0-.58-.47-1.04-1.04-1.04h-2.14c-.58,0-1.04.47-1.04,1.04v1.36c0,.58.47,1.04,1.04,1.04h2.14c.58,0,1.04-.47,1.04-1.04v-1.36Z"/>
              <path id="Trazado_5" data-name="Trazado 5" class="cls-1" d="M66.04,4.74h5.2c.08,0,.15.06.15.14,0,0,0,0,0,0v.68c0,.08-.06.15-.14.15,0,0,0,0,0,0h-5.2c-.08,0-.15-.06-.15-.14,0,0,0,0,0,0v-.68c0-.08.06-.15.14-.15,0,0,0,0,0,0ZM67.49,6.94h3.74c.09,0,.16.08.17.17v.64c0,.09-.08.16-.17.17h-3.74c-.34,0-.62.28-.62.62h0v1.42c0,.09-.08.16-.17.17h-.64c-.09,0-.16-.08-.17-.17v-1.42c0-.68.43-1.28,1.06-1.51.17-.06.35-.09.53-.09Z"/>
            </g>
            <g id="Grupo_3" data-name="Grupo 3">
              <path id="Trazado_6" data-name="Trazado 6" class="cls-1" d="M91.86,7.03v4.93c0,1.59-1.29,2.89-2.89,2.89h-7.71c-3.06,0-5.53-2.48-5.54-5.54v-3.72c0-3.06,2.48-5.53,5.54-5.54h9.38c.15,0,.27.12.28.28v2.14c0,.15-.12.27-.28.28h-9.38c-1.56,0-2.82,1.27-2.82,2.82v3.72c0,1.56,1.27,2.82,2.82,2.82h7.3c.32,0,.57-.25.57-.57h0v-1.81c0-.17-.14-.31-.32-.32h-5.07c-.15,0-.27-.12-.28-.28v-2.14c0-.15.12-.27.28-.28h7.82c.15,0,.27.12.28.28l.02.04Z"/>
              <path id="Trazado_7" data-name="Trazado 7" class="cls-1" d="M111.16,14.84c-.21,0-.39-.13-.47-.32l-4.08-10.21c-.51-1.27-1.95-1.88-3.21-1.37-.62.25-1.12.75-1.37,1.37l-4.08,10.21c-.08.19-.26.32-.47.32h-1.83c-.27,0-.5-.22-.5-.49,0-.06.01-.13.03-.19l4.31-10.85c1.06-2.65,4.07-3.94,6.72-2.88,1.31.53,2.35,1.57,2.88,2.88l4.33,10.85c.1.25-.02.54-.27.64-.06.03-.13.04-.2.04h-1.8,0Z"/>
              <path id="Trazado_8" data-name="Trazado 8" class="cls-1" d="M119.51.36v8.6c0,1.75,1.42,3.16,3.16,3.16h7.71c.17,0,.31.14.32.32v2.06c0,.17-.14.31-.32.32h-7.71c-3.23,0-5.85-2.63-5.86-5.86V.34c0-.17.14-.31.32-.32h2.06c.17,0,.31.14.32.32v.02Z"/>
              <path id="Trazado_9" data-name="Trazado 9" class="cls-1" d="M150,14.84c-.19,0-.37-.12-.45-.3l-4.08-10.23c-.51-1.27-1.95-1.88-3.21-1.37-.62.25-1.12.75-1.37,1.37l-4.08,10.23c-.07.18-.25.3-.45.3h-1.87c-.26,0-.48-.21-.48-.48,0-.06.01-.12.03-.18l4.33-10.87c1.06-2.65,4.07-3.94,6.72-2.88,1.31.53,2.35,1.57,2.88,2.88l4.33,10.87c.1.25-.02.52-.26.62-.06.02-.12.04-.18.03h-1.87Z"/>
              <path id="Trazado_10" data-name="Trazado 10" class="cls-1" d="M170.59,12.7v1.89c0,.14-.1.25-.24.25,0,0-.01,0-.02,0h-2.21c-.14,0-.25-.1-.25-.24,0,0,0-.01,0-.02v-1.89c0-2.61-2.36-3.86-4.71-3.89-2.38-.02-4.84,1.23-4.84,3.89v1.89c0,.14-.1.25-.24.25,0,0-.01,0-.02,0h-2.21c-.14,0-.25-.1-.25-.24,0,0,0-.01,0-.02v-1.89c-.04-2,.91-3.88,2.53-5.05,1.61-1.19.13-.3,0-.41-1.62-1.17-2.56-3.06-2.53-5.05V.3c0-.14.1-.25.24-.25,0,0,.01,0,.02,0h2.21c.14,0,.25.1.25.24,0,0,0,.01,0,.02v1.89c0,2.61,2.4,3.89,4.74,3.89h.11c2.34-.02,4.71-1.3,4.71-3.89V.3c0-.14.1-.25.24-.25,0,0,.01,0,.02,0h2.21c.14,0,.25.1.25.24,0,0,0,.01,0,.02v1.89c.02,1.52-.53,3-1.53,4.14-.3.33-.63.64-.98.91-.34.28-.13.3,0,.41.36.27.68.58.98.91,1,1.14,1.55,2.62,1.53,4.14Z"/>
              <path id="Trazado_11" data-name="Trazado 11" class="cls-1" d="M182.25,14.84h-2.19c-.14,0-.25-.1-.25-.24,0,0,0-.01,0-.02v-5.67c0-.13-.09-.23-.21-.25-3.29-.57-5.91-2.91-5.91-6.45V.32c0-.14.1-.25.24-.25,0,0,.01,0,.02,0h2.19c.14,0,.25.1.25.24,0,0,0,.01,0,.02v1.89c0,5.2,9.55,5.2,9.55,0V.32c0-.14.1-.25.24-.25,0,0,.01,0,.02,0h2.19c.14,0,.25.1.25.24,0,0,0,.01,0,.02v1.89c.02,1.52-.53,3-1.53,4.14-1.16,1.25-2.7,2.07-4.37,2.34-1.66.3-.21.13-.21.25v5.65c0,.14-.1.25-.24.25,0,0-.01,0-.02,0h-.01Z"/>
            </g>
          </g>
          <path id="Trazado_12" data-name="Trazado 12" class="cls-1" d="M11.67,12l-.79-.3c-.64-.24-1.14-.74-1.38-1.38l-.3-.79s-.04-.04-.06-.04-.06,0-.06.04l-.3.79c-.24.64-.74,1.14-1.38,1.38l-.79.3s-.04.04-.04.06,0,.06.04.06l.79.3c.64.24,1.14.74,1.38,1.38l.3.79s.04.04.06.04.06,0,.06-.04l.3-.79c.24-.64.74-1.14,1.38-1.38l.79-.3s.04-.04.04-.06,0-.06-.04-.06Z"/>
          <path id="Trazado_13" data-name="Trazado 13" class="cls-1" d="M106.83,12l-.79-.3c-.64-.24-1.14-.74-1.38-1.38l-.3-.79s-.04-.04-.06-.04-.06,0-.06.04l-.3.79c-.24.64-.74,1.14-1.38,1.38l-.79.3s-.04.04-.04.06,0,.06.04.06l.79.3c.64.24,1.14.74,1.38,1.38l.3.79s.04.04.06.04.06,0,.06-.04l.3-.79c.24-.64.74-1.14,1.38-1.38l.79-.3s.04-.04.04-.06,0-.06-.04-.06Z"/>
          <path id="Trazado_14" data-name="Trazado 14" class="cls-1" d="M145.9,12l-.79-.3c-.64-.24-1.14-.74-1.38-1.38l-.3-.79s-.04-.04-.06-.04-.06,0-.06.04l-.3.79c-.24.64-.74,1.14-1.38,1.38l-.79.3s-.04.04-.04.06,0,.06.04.06l.79.3c.64.24,1.14.74,1.38,1.38l.3.79s.04.04.06.04.06,0,.06-.04l.3-.79c.24-.64.74-1.14,1.38-1.38l.79-.3s.04-.04.04-.06,0-.06-.04-.06Z"/>
        </g>
      </g>
    </g>
  </g>
</svg>